<?xml version="1.0" encoding="UTF-8"?>
<svg id="Layer_1" xmlns="http://www.w3.org/2000/svg" viewBox="0 0 245.22 87.69" role="img" aria-labelledby="ajcTitle ajcDesc">
  <title id="ajcTitle">WIOA CNA Orientation Pomona - American Job Center Partnership</title>
  <desc id="ajcDesc">Official WIOA common-identifier banner for Lotus Medical Career College’s August 14, 2025 CNA orientation in Pomona, CA. CDPH-approved, BPPE-compliant, no guarantees implied.</desc>
  <defs>
    <style>.cls-1{fill:#234093}.cls-2{fill:#939598}.cls-3{fill:#c7202e}</style>
  </defs>
  <path class="cls-2" d="M21.27 1.26h2.07l5.81 13.74h-2.15l-1.4-3.46h-6.73l-1.4 3.46h-2.07L21.27 1.26ZM22.23 3.11l-2.73 6.81h5.47l-2.74-6.81Z"/>
  <path class="cls-2" d="M36.43 4.96h1.77v1.42h.04c.49-.75 1.63-1.65 3.4-1.65 2.91 0 4.33 2.38 4.33 5.07s-1.28 5.43-4.31 5.43c-1.77 0-2.77-.69-3.34-1.61h-.04v5.51h-1.85V4.96ZM41.25 6.22c-2 0-2.97 1.91-2.97 3.78 0 1.67.87 3.74 2.95 3.74s2.81-2.22 2.77-3.8c.04-1.81-.75-3.72-2.76-3.72Z"/>
  <path class="cls-2" d="M48.46 4.96h1.73v1.55h.04c.49-1.04 1.55-1.79 2.62-1.79.55 0 .82.06 1.22.14v1.65c-.33-.14-.71-.17-1.02-.17-1.65 0-2.73 1.57-2.73 4.09v4.57h-1.85V4.96Z"/>
  <path class="cls-2" d="M60.57 4.72c3.05 0 5.1 2.2 5.1 5.25 0 2.87-2.08 5.25-5.1 5.25s-5.11-2.38-5.11-5.25c0-3.05 2.05-5.25 5.11-5.25ZM60.57 13.73c2.17 0 3.13-1.97 3.13-3.76 0-1.91-1.16-3.76-3.13-3.76s-3.15 1.85-3.15 3.76c0 1.79.97 3.76 3.15 3.76Z"/>
  <path class="cls-2" d="M77.03 15h-1.79v-1.59h-.04c-.55 1.14-1.89 1.83-3.28 1.83-2.6 0-3.76-1.61-3.76-4.31v-5.96h1.85v5.19c0 2.34.51 3.48 2.13 3.58 2.1 0 3.05-1.69 3.05-4.13v-4.64h1.85v10.04Z"/>
  <path class="cls-2" d="M87.29 13.58h-.03c-.5.75-1.64 1.65-3.43 1.65-3.03 0-4.31-2.7-4.31-5.43s1.41-5.07 4.32-5.07c1.75 0 2.76.69 3.33 1.61h.04V.24h1.85v14.76h-1.77v-1.42ZM84.26 13.73c2.08 0 2.95-2.07 2.95-3.74 0-1.87-.97-3.78-2.97-3.78s-2.8 1.89-2.75 3.72c-.04 1.57.79 3.8 2.78 3.8Z"/>
  <path class="cls-2" d="M97.69 4.96h1.77v1.42h.04c.5-.75 1.64-1.65 3.41-1.65 2.91 0 4.33 2.38 4.33 5.07s-1.28 5.43-4.31 5.43c-1.77 0-2.78-.69-3.35-1.61h-.03v5.51h-1.85V4.96ZM102.51 6.22c-2.01 0-2.97 1.91-2.97 3.78 0 1.67.86 3.74 2.95 3.74s2.82-2.22 2.78-3.8c.04-1.81-.75-3.72-2.76-3.72Z"/>
  <path class="cls-2" d="M110.2 5.67c.92-.55 2.02-.94 3.3-.94 2.88 0 4.03 1.41 4.03 4.15v4.15c0 1.14.04 1.67.08 1.97h-1.73v-1.3h-.04c-.43.61-1.42 1.53-3.11 1.53-2.16 0-3.68-.94-3.68-3.13 0-2.52 2.75-3.31 4.66-3.31.73 0 1.24 0 1.97.04 0-1.73-.63-2.62-2.48-2.62-1.04 0-2.16.39-2.91 1.03l-.1-1.58ZM115.68 10.21c-.4 0-.79-.04-1.18-.04-1.01 0-3.49.16-3.49 1.93 0 1.06 1.02 1.63 1.87 1.63 1.83 0 2.8-1.14 2.8-2.64v-.88Z"/>
  <path class="cls-2" d="M120.67 4.96h1.73v1.55h.04c.49-1.04 1.56-1.79 2.62-1.79.55 0 .82.06 1.22.14v1.65c-.34-.14-.72-.17-1.03-.17-1.66 0-2.74 1.57-2.74 4.09v4.57h-1.85V4.96Z"/>
  <path class="cls-2" d="M133.66 6.46h-2.66v5.49c0 1.16.71 1.79 1.56 1.79.57 0 .98-.18 1.25-.35v1.57c-.41.12-.98.28-1.58.28-1.9 0-3.09-.91-3.09-2.91v-5.86h-2.26v-1.49h2.26v-2.32l1.85-.59v2.91h2.66v1.49Z"/>
  <path class="cls-2" d="M135.99 4.96h1.79v1.59h.04c.55-1.14 1.89-1.83 3.29-1.83 2.6 0 3.76 1.61 3.76 4.31v5.96h-1.85v-5.2c0-2.34-.5-3.48-2.12-3.58-2.11 0-3.05 1.69-3.05 4.13v4.64h-1.85V4.96Z"/>
  <path class="cls-2" d="M155.71 14.58c-.71.25-1.52.65-3.17.65-3.56 0-5.2-2.16-5.2-5.43 0-2.97 1.87-5.07 4.71-5.07 3.34 0 4.42 2.44 4.42 5.67h-7.16c0 1.99 1.55 3.34 3.31 3.34 1.22 0 2.63-.63 3.09-1v1.85ZM154.51 9.01c0-1.54-.9-2.79-2.5-2.79-1.81 0-2.56 1.49-2.7 2.79h5.19Z"/>
  <path class="cls-2" d="M158.96 4.96h1.73v1.55h.04c.49-1.04 1.55-1.79 2.62-1.79.55 0 .82.06 1.22.14v1.65c-.34-.14-.71-.17-1.03-.17-1.66 0-2.73 1.57-2.73 4.09v4.57h-1.85V4.96Z"/>
  <path class="cls-2" d="M176.55 4.72c3.05 0 5.1 2.2 5.1 5.25 0 2.87-2.09 5.25-5.1 5.25s-5.12-2.38-5.12-5.25c0-3.05 2.05-5.25 5.12-5.25ZM176.55 13.73c2.16 0 3.13-1.97 3.13-3.76 0-1.91-1.17-3.76-3.13-3.76s-3.15 1.85-3.15 3.76c0 1.79.97 3.76 3.15 3.76Z"/>
  <path class="cls-2" d="M185.33 6.46h-2.36v-1.49h2.36v-.93c0-2.44.63-4.03 3.36-4.03.47 0 .86.06 1.24.12l-.08 1.5c-.22-.08-.56-.12-.88-.12-1.6 0-1.79 1.02-1.79 2.38v1.08h2.65v1.49h-2.65v8.54h-1.85V6.46Z"/>
  <path class="cls-2" d="M202.6 6.46h-2.66v5.49c0 1.16.71 1.79 1.55 1.79.57 0 .99-.18 1.27-.35v1.57c-.42.12-.98.28-1.57.28-1.91 0-3.09-.91-3.09-2.91v-5.86h-2.26v-1.49h2.26v-2.32l1.84-.59v2.91h2.66v1.49Z"/>
  <path class="cls-2" d="M204.92.24h1.85v6.16h.04c.67-1.06 1.83-1.67 3.22-1.67 2.6 0 3.76 1.61 3.76 4.31v5.96h-1.85v-5.2c0-2.34-.51-3.48-2.12-3.58-2.11 0-3.05 1.69-3.05 4.13v4.64h-1.85V.24Z"/>
  <path class="cls-2" d="M224.64 14.58c-.71.25-1.51.65-3.16.65-3.56 0-5.19-2.16-5.19-5.43 0-2.97 1.87-5.07 4.7-5.07 3.34 0 4.42 2.44 4.42 5.67h-7.16c0 1.99 1.56 3.34 3.31 3.34 1.22 0 2.64-.63 3.09-1v1.85ZM223.45 9.01c0-1.54-.91-2.79-2.5-2.79-1.81 0-2.56 1.49-2.7 2.79h5.2Z"/>
  <path class="cls-2" d="M79.75 77.42h1.79v1.59h.04c.55-1.14 1.89-1.83 3.28-1.83 2.6 0 3.76 1.62 3.76 4.31v5.96h-1.85v-5.19c0-2.34-.51-3.49-2.12-3.58-2.11 0-3.05 1.69-3.05 4.13v4.64h-1.85v-10.03Z"/>
  <path class="cls-2" d="M99.48 87.04c-.71.26-1.52.65-3.17.65-3.57 0-5.2-2.16-5.2-5.43 0-2.97 1.87-5.08 4.7-5.08 3.35 0 4.43 2.44 4.43 5.67h-7.16c0 1.98 1.56 3.34 3.3 3.34 1.23 0 2.64-.62 3.09-1v1.85ZM98.28 81.47c0-1.53-.9-2.79-2.5-2.79-1.81 0-2.56 1.49-2.69 2.79h5.19Z"/>
  <path class="cls-2" d="M108.06 78.92h-2.66v5.48c0 1.17.71 1.79 1.55 1.79.58 0 .99-.18 1.26-.35v1.58c-.41.12-.98.27-1.57.27-1.91 0-3.09-.9-3.09-2.91v-5.86h-2.26v-1.49h2.26v-2.33l1.85-.59v2.92h2.66v1.49Z"/>
  <path class="cls-2" d="M121.74 87.45h-2.14l-2.6-8.42h-.04l-2.54 8.42h-2.14l-3.23-10.03h2.03l2.3 8.3h.04l2.56-8.3h2.18l2.52 8.3h.04l2.44-8.3h1.81l-3.23 10.03Z"/>
  <path class="cls-2" d="M131.24 77.18c3.05 0 5.1 2.21 5.1 5.26 0 2.87-2.08 5.25-5.1 5.25s-5.12-2.38-5.12-5.25c0-3.05 2.05-5.26 5.12-5.26ZM131.24 86.19c2.16 0 3.13-1.96 3.13-3.75 0-1.91-1.16-3.76-3.13-3.76s-3.15 1.85-3.15 3.76c0 1.8.96 3.75 3.15 3.75Z"/>
  <path class="cls-2" d="M138.82 77.42h1.73v1.55h.04c.49-1.03 1.55-1.79 2.62-1.79.55 0 .82.06 1.22.14v1.65c-.34-.13-.71-.17-1.02-.17-1.65 0-2.73 1.57-2.73 4.09v4.57h-1.85v-10.03Z"/>
  <path class="cls-2" d="M146.48 72.7h1.85v8.79l4.04-4.07h2.52l-4.67 4.44 5.26 5.59h-2.66l-4.49-5.15v5.15h-1.85v-14.75Z"/>
  <path class="cls-1" d="M7.5 42.59h2.64l7.42 17.56h-2.74l-1.79-4.42H4.43l-1.78 4.42H0l7.5-17.56ZM8.73 44.96l-3.5 8.71h6.99l-3.5-8.71Z"/>
  <path class="cls-1" d="M20.11 47.32h2.21v1.86h.05c.91-1.48 2.19-2.17 4.08-2.17 1.48 0 2.97.76 3.65 2.49.88-1.84 2.82-2.49 3.98-2.49 3.27 0 4.45 2.12 4.45 4.91v8.23h-2.37v-7.65c0-1.59-.38-3.57-2.29-3.57-2.42 0-3.37 2.37-3.37 4.75v6.47h-2.37v-7.65c0-1.59-.38-3.57-2.29-3.57-2.42 0-3.37 2.37-3.37 4.75v6.47h-2.36v-12.83Z"/>
  <path class="cls-1" d="M52.6 59.63c-.91.33-1.94.83-4.05.83-4.56 0-6.64-2.77-6.64-6.95 0-3.8 2.39-6.5 6.01-6.5 4.28 0 5.66 3.12 5.66 7.25h-9.16c0 2.54 1.99 4.28 4.23 4.28 1.56 0 3.37-.8 3.95-1.29v2.37ZM51.06 52.5c0-1.96-1.16-3.57-3.2-3.57-2.31 0-3.27 1.91-3.45 3.57h6.64Z"/>
  <path class="cls-1" d="M57 47.32h2.21v1.99h.05c.63-1.33 1.99-2.29 3.35-2.29.7 0 1.06.08 1.56.18v2.11c-.43-.17-.91-.22-1.31-.22-2.12 0-3.5 2.01-3.5 5.23v5.84h-2.37v-12.83Z"/>
  <path class="cls-1" d="M67.34 47.32h2.37v12.83h-2.37v-12.83Z"/>
  <path class="cls-1" d="M82.45 49.49c-.91-.38-1.81-.55-2.57-.55-2.64 0-4.13 2.37-4.13 4.81 0 2.29 1.24 4.8 4.28 4.8.81 0 1.81-.25 2.54-.73l.18 2.11c-.98.46-2.11.53-2.97.53-3.87 0-6.54-3.04-6.54-6.72 0-3.9 2.62-6.72 6.54-6.72.96 0 2.19.23 2.87.51l-.2 1.96Z"/>
  <path class="cls-1" d="M86.32 48.23c1.18-.7 2.59-1.21 4.23-1.21 3.67 0 5.16 1.81 5.16 5.31v5.31c0 1.46.05 2.14.1 2.51h-2.21v-1.66h-.05c-.55.78-1.81 1.96-3.98 1.96-2.77 0-4.71-1.21-4.71-4 0-3.22 3.52-4.23 5.96-4.23.93 0 1.58 0 2.52.05 0-2.21-.8-3.35-3.17-3.35-1.34 0-2.77.5-3.72 1.31l-.13-2.01ZM93.34 54.04c-.5 0-1.01-.05-1.51-.05-1.29 0-4.46.2-4.46 2.47 0 1.36 1.31 2.09 2.39 2.09 2.34 0 3.57-1.46 3.57-3.37v-1.13Z"/>
  <path class="cls-1" d="M99.96 47.32h2.29v2.04h.05c.7-1.46 2.42-2.34 4.2-2.34 3.32 0 4.81 2.07 4.81 5.51v7.62h-2.37v-6.64c0-2.99-.66-4.46-2.72-4.58-2.69 0-3.9 2.17-3.9 5.29v5.94h-2.37v-12.83Z"/>
  <path class="cls-3" d="M113.93 56.1c.58.27 1.3.42 2.11.42 1.38 0 2.39-.98 2.39-3.85v-10.09h4.68v11.5c0 3.77-1.54 6.37-6.29 6.37-1.03 0-2.09-.28-2.89-.48v-3.88Z"/>
  <path class="cls-3" d="M125.78 53.61c0-4.35 3.3-6.87 7.62-6.87s7.62 2.52 7.62 6.87-3.3 6.85-7.62 6.85-7.62-2.52-7.62-6.85ZM136.35 53.61c0-1.96-.85-3.7-2.94-3.7s-2.95 1.74-2.95 3.7.86 3.67 2.95 3.67 2.94-1.73 2.94-3.67Z"/>
  <path class="cls-3" d="M143.37 41.28h4.55v7.45h.05c1.16-1.46 2.69-1.99 4.5-1.99 3.62 0 5.61 3.45 5.61 6.62 0 3.87-2.09 7.1-5.99 7.1-2.09 0-3.93-1.19-4.51-2.64h-.05v2.34h-4.18v-18.87ZM150.66 50.21c-1.66 0-2.77 1.46-2.77 3.42s1.26 3.34 2.77 3.34c1.71 0 2.74-1.43 2.74-3.52 0-1.74-.98-3.25-2.74-3.25Z"/>
  <path class="cls-1" d="M173.49 45.48c-1.11-.65-2.34-.98-3.63-.98-4.05 0-6.74 2.92-6.74 6.87s2.97 6.87 6.62 6.87c1.26 0 2.95-.33 3.83-.86l.15 2.44c-1.33.55-2.97.63-4 .63-5.56 0-9.26-3.58-9.26-9.16s3.92-9.01 9.28-9.01c1.36 0 2.69.2 3.95.75l-.2 2.44Z"/>
  <path class="cls-1" d="M186.6 59.63c-.9.33-1.93.83-4.05.83-4.55 0-6.64-2.77-6.64-6.95 0-3.8 2.39-6.5 6.02-6.5 4.27 0 5.66 3.12 5.66 7.25h-9.16c0 2.54 1.99 4.28 4.23 4.28 1.56 0 3.37-.8 3.95-1.29v2.37ZM185.07 52.5c0-1.96-1.16-3.57-3.2-3.57-2.31 0-3.27 1.91-3.45 3.57h6.64Z"/>
  <path class="cls-1" d="M191.01 47.32h2.29v2.04h.05c.71-1.46 2.42-2.34 4.2-2.34 3.33 0 4.8 2.07 4.8 5.51v7.62h-2.36v-6.64c0-2.99-.66-4.46-2.72-4.58-2.69 0-3.9 2.17-3.9 5.29v5.94h-2.37v-12.83Z"/>
  <path class="cls-1" d="M213.46 49.23h-3.4v7.02c0 1.48.9 2.29 1.99 2.29.73 0 1.26-.22 1.61-.45v2.01c-.53.15-1.26.36-2.01.36-2.44 0-3.95-1.16-3.95-3.72v-7.5h-2.9v-1.91h2.9v-2.97l2.37-.75v3.72h3.4v1.91Z"/>
  <path class="cls-1" d="M226.52 59.63c-.91.33-1.94.83-4.05.83-4.55 0-6.64-2.77-6.64-6.95 0-3.8 2.39-6.5 6.01-6.5 4.28 0 5.66 3.12 5.66 7.25h-9.16c0 2.54 1.99 4.28 4.22 4.28 1.56 0 3.37-.8 3.95-1.29v2.37ZM224.98 52.5c0-1.96-1.16-3.57-3.2-3.57-2.31 0-3.27 1.91-3.45 3.57h6.64Z"/>
  <path class="cls-1" d="M230.92 47.32h2.22v1.99h.05c.63-1.33 1.99-2.29 3.34-2.29.71 0 1.06.08 1.56.18v2.11c-.43-.17-.91-.22-1.31-.22-2.11 0-3.5 2.01-3.5 5.23v5.84h-2.37v-12.83Z"/>
  <path class="cls-1" d="M117.12 32.67c-.12-.05-.72-.48-1.84-1.02-1.12-.53-2.79-1.17-5.1-1.55-2.3-.39-5.25-.48-8.54-.11-3.29.36-6.91 1.17-10.48 2.32-3.57 1.15-7.08 2.63-10.22 4.23-3.14 1.6-5.91 3.32-7.97 4.86-1.03.77-1.88 1.48-2.5 2.07-.62.58-1.01 1.05-1.13 1.21-.07.09-.04.06-.06.08 0 0 0 .01-.01.02 0 .01 0 .02 0 .02-.27-.11-.52-.25-.76-.43-.22-.19-.45-.38-.58-.69-.27-.63-.26-1.52-.15-2.44 1.57-1.34 3.55-2.67 5.6-3.86 2.07-1.2 4.25-2.28 6.48-3.26 4.47-1.95 9.14-3.47 13.77-4.42 4.63-.95 9.27-1.33 13.42-.87 2.07.23 4 .67 5.7 1.32 1.7.65 3.15 1.49 4.37 2.51Z"/>
  <polygon class="cls-3" points="114.26 27.88 117.02 32.57 113.19 35.26 118.56 35.93 121.22 40.76 121.99 36.1 127.46 36.92 122.25 33.54 122.99 28.96 119.2 31.37 114.26 27.88"/>
  <path class="cls-1" d="M241.44 47.32c0-1.04.85-1.89 1.89-1.89s1.89.85 1.89 1.89-.85 1.89-1.89 1.89-1.89-.85-1.89-1.89ZM244.76 47.32c0-.88-.64-1.52-1.43-1.52s-1.43.64-1.43 1.52.64 1.53 1.43 1.53 1.43-.64 1.43-1.53ZM242.6 46.24h.8c.51 0 .79.18.79.63 0 .37-.21.54-.56.58l.58.94h-.41l-.55-.92h-.24v.92h-.4v-2.14ZM243 47.16h.35c.24 0 .44-.03.44-.32 0-.25-.23-.29-.43-.29h-.36v.61Z"/>
</svg>